<svg width="50" height="50" viewBox="0 0 50 50" fill="none" xmlns="http://www.w3.org/2000/svg">
<circle cx="25" cy="25" r="22.5" fill="white" stroke="#F1F1F1" stroke-width="5"/>
<path fill-rule="evenodd" clip-rule="evenodd" d="M24.354 20.2627L25.25 21.1594L26.1461 20.2627C26.9536 19.4542 28.0495 19 29.1922 19C30.3348 19 31.4307 19.4542 32.2382 20.2627V20.2627C33.9206 21.9469 33.9206 24.6756 32.2382 26.3598L26.5554 32.0471C26.2093 32.3935 25.7397 32.5882 25.25 32.5882C24.7603 32.5882 24.2906 32.3935 23.9445 32.0471L18.2618 26.3599C16.5794 24.6757 16.5794 21.947 18.2618 20.2628V20.2628C19.0693 19.4543 20.1652 19 21.3079 19C22.4506 19 23.5464 19.4543 24.354 20.2627V20.2627Z" stroke="black" stroke-width="2" stroke-linecap="round" stroke-linejoin="round"/>
</svg>
