<svg width="16" height="16" viewBox="0 0 16 16" fill="none" xmlns="http://www.w3.org/2000/svg">
<path d="M2.88519 14.9833C3.92635 14.9833 4.77038 14.1392 4.77038 13.0981C4.77038 12.0569 3.92635 11.2129 2.88519 11.2129C1.84403 11.2129 1 12.0569 1 13.0981C1 14.1392 1.84403 14.9833 2.88519 14.9833Z" stroke="none"/>
<path d="M1 5.7041V8.4189C4.62865 8.4189 7.581 11.3713 7.581 14.9999H10.2958C10.2958 12.5171 9.32886 10.1823 7.57302 8.42689C5.81758 6.67105 3.48285 5.7041 1 5.7041Z" stroke="none"/>
<path d="M13.8993 9.55043C13.1943 7.88322 12.185 6.38609 10.8995 5.10055C9.61431 3.81541 8.11718 2.80614 6.44957 2.10069C4.72287 1.37049 2.88958 1 1 1V3.7148C4.01463 3.7148 6.8484 4.88856 8.97992 7.02008C11.1114 9.1516 12.2852 11.9858 12.2852 15H15C15 13.1104 14.6295 11.2771 13.8993 9.55003V9.55043Z" stroke="none"/>
</svg>
