<svg width="16" height="16" viewBox="0 0 16 16" fill="none" xmlns="http://www.w3.org/2000/svg">
<path d="M15.81 3.52363C15.2269 3.77757 14.6061 3.95626 13.9478 4.03151C14.6156 3.62709 15.1328 2.99694 15.3774 2.23513C14.7472 2.61133 14.0512 2.87468 13.3176 3.02516C12.7251 2.39501 11.8787 2 10.9476 2C9.15118 2 7.70279 3.45779 7.70279 5.24477C7.70279 5.4987 7.73101 5.74324 7.78744 5.98777C5.08817 5.8561 2.69927 4.55819 1.09099 2.59252C0.80884 3.07218 0.648952 3.62709 0.648952 4.22901C0.648952 5.35763 1.22266 6.34516 2.09734 6.92828C1.56125 6.90947 1.06278 6.76839 0.630141 6.52386C0.630141 6.53327 0.630141 6.55208 0.630141 6.56148C0.630141 8.13214 1.74935 9.44885 3.23536 9.74982C2.96261 9.82506 2.68046 9.86268 2.37949 9.86268C2.17258 9.86268 1.96567 9.84387 1.76816 9.80625C2.18198 11.0947 3.37643 12.0353 4.80601 12.0635C3.69621 12.9382 2.29485 13.4554 0.771219 13.4554C0.507876 13.4554 0.253938 13.4366 0 13.4084C1.43898 14.3301 3.14131 14.8662 4.9753 14.8662C10.9476 14.8662 14.2111 9.91911 14.2111 5.63038C14.2111 5.4893 14.2111 5.34822 14.2017 5.20714C14.8225 4.74629 15.368 4.17258 15.81 3.52363Z" stroke="none"/>
</svg>
